<?xml version="1.0" standalone="no"?>
<!DOCTYPE svg PUBLIC "-//W3C//DTD SVG 20010904//EN"
 "http://www.w3.org/TR/2001/REC-SVG-20010904/DTD/svg10.dtd">
<svg version="1.0" xmlns="http://www.w3.org/2000/svg"
 width="700.000000pt" height="700.000000pt" viewBox="0 0 700.000000 700.000000"
 preserveAspectRatio="xMidYMid meet">
<metadata>
Created by potrace 1.14, written by Peter Selinger 2001-2017
</metadata>
<g transform="translate(0.000000,700.000000) scale(0.100000,-0.100000)"
fill="#000000" stroke="none">
<path d="M2125 6785 c-1022 -153 -1440 -219 -1465 -232 -41 -21 -80 -75 -80
-112 -1 -14 214 -1469 477 -3233 l478 -3208 977 0 977 0 1413 211 c1539 229
1459 214 1493 286 8 17 15 44 15 60 1 15 -214 1471 -477 3236 l-478 3207 -950
-1 -950 -1 -1430 -213z m-640 -743 c26 -177 46 -324 44 -326 -2 -2 -27 -7 -55
-11 l-51 -6 -19 131 c-10 72 -21 136 -25 142 -5 8 -46 6 -155 -10 -81 -13
-150 -24 -152 -26 -2 -2 6 -66 17 -142 11 -76 19 -140 17 -142 -2 -1 -26 -5
-54 -9 -49 -5 -50 -5 -56 23 -10 47 -95 628 -93 630 1 2 26 6 54 10 61 8 53
22 79 -155 l17 -113 51 6 c28 4 97 14 154 23 119 18 110 2 85 170 -9 62 -13
116 -10 120 10 9 90 21 98 14 4 -3 28 -151 54 -329z m1804 -2407 c83 -555 149
-1010 148 -1011 -6 -6 -328 -50 -331 -45 -2 3 -32 197 -67 431 -34 234 -66
429 -70 433 -6 8 -934 -124 -944 -135 -3 -3 24 -200 59 -439 36 -238 64 -435
62 -437 -6 -5 -329 -53 -333 -48 -8 7 -304 2009 -299 2021 4 11 322 63 330 54
2 -2 32 -194 67 -426 52 -351 65 -423 78 -423 25 1 932 137 935 141 2 2 -25
195 -60 429 -34 233 -62 425 -61 426 7 7 323 50 329 45 3 -3 74 -460 157
-1016z m1995 855 c35 -13 33 -33 -8 -67 -19 -15 -47 -48 -64 -73 -34 -51 -114
-224 -178 -384 l-44 -110 54 -71 c64 -83 259 -281 317 -321 49 -33 60 -26 86
56 20 62 48 79 59 36 13 -52 -38 -249 -71 -276 -9 -7 -26 -9 -47 -5 -40 9
-172 140 -327 323 -57 67 -106 122 -110 122 -17 0 -131 -383 -131 -443 0 -41
24 -52 62 -29 18 11 39 17 46 15 26 -10 9 -47 -50 -108 -90 -91 -132 -96 -165
-18 -29 69 -10 164 92 463 37 107 69 202 71 210 4 16 -117 194 -265 388 -47
63 -99 131 -115 152 -20 27 -30 55 -34 89 -4 50 -4 51 24 51 21 0 41 -14 83
-57 59 -63 203 -252 294 -387 32 -47 61 -86 65 -86 4 0 22 42 41 93 52 140
126 312 156 363 19 32 40 52 68 65 49 22 57 22 91 9z m-1130 -195 c81 -39 101
-137 47 -231 -63 -109 -250 -247 -452 -332 -52 -22 -104 -43 -116 -46 -29 -9
-37 -54 -30 -165 8 -125 38 -213 94 -272 68 -73 146 -93 265 -68 182 39 305
190 408 502 17 53 36 97 41 97 46 0 -4 -247 -83 -405 -115 -232 -265 -338
-478 -338 -74 0 -94 4 -150 30 -88 40 -131 80 -167 155 -44 91 -57 157 -57
298 -1 187 40 337 138 505 49 84 174 214 236 245 102 52 227 63 304 25z m1876
-2975 c0 -6 20 -146 45 -312 25 -167 44 -312 43 -323 -2 -14 -13 -21 -40 -26
-43 -7 -39 -16 -64 159 l-17 123 -46 -7 c-257 -38 -266 -40 -264 -59 1 -11 9
-73 18 -138 10 -67 14 -122 9 -127 -5 -4 -30 -10 -55 -13 l-45 -6 -48 325
c-27 183 -45 329 -40 334 5 4 30 11 55 14 l46 7 18 -130 c10 -71 20 -133 24
-139 6 -9 295 28 306 40 3 3 -4 64 -15 136 -11 72 -20 133 -20 136 0 4 33 11
73 15 9 0 17 -4 17 -9z"/>
<path d="M3918 4197 c-50 -19 -126 -77 -165 -125 -64 -79 -149 -269 -130 -288
12 -13 132 38 236 99 67 40 133 89 183 138 68 66 78 80 78 111 0 51 -27 71
-103 75 -35 2 -78 -3 -99 -10z"/>
</g>
</svg>
